<mxfile host="Electron" agent="Mozilla/5.0 (Windows NT 10.0; Win64; x64) AppleWebKit/537.36 (KHTML, like Gecko) draw.io/26.0.16 Chrome/132.0.6834.196 Electron/34.2.0 Safari/537.36" version="26.0.16">
  <diagram name="Page-1" id="WASLpTwy2ZbQWI6ii88h">
    <mxGraphModel dx="1247" dy="727" grid="1" gridSize="10" guides="1" tooltips="1" connect="1" arrows="1" fold="1" page="1" pageScale="1" pageWidth="850" pageHeight="1100" math="0" shadow="0">
      <root>
        <mxCell id="0" />
        <mxCell id="1" parent="0" />
        <mxCell id="7nAhwSSTOHI013ocTRrG-188" value="" style="rounded=0;whiteSpace=wrap;html=1;fillColor=none;" parent="1" vertex="1">
          <mxGeometry x="40" y="40.97" width="760" height="1759.03" as="geometry" />
        </mxCell>
        <mxCell id="7nAhwSSTOHI013ocTRrG-128" value="" style="endArrow=none;html=1;rounded=0;" parent="1" edge="1">
          <mxGeometry width="50" height="50" relative="1" as="geometry">
            <mxPoint x="320" y="1800" as="sourcePoint" />
            <mxPoint x="320" y="40" as="targetPoint" />
          </mxGeometry>
        </mxCell>
        <mxCell id="7nAhwSSTOHI013ocTRrG-129" value="" style="endArrow=none;html=1;rounded=0;entryX=1.002;entryY=0.023;entryDx=0;entryDy=0;entryPerimeter=0;" parent="1" target="7nAhwSSTOHI013ocTRrG-188" edge="1">
          <mxGeometry width="50" height="50" relative="1" as="geometry">
            <mxPoint x="40" y="80" as="sourcePoint" />
            <mxPoint x="760" y="80" as="targetPoint" />
            <Array as="points">
              <mxPoint x="390" y="80" />
            </Array>
          </mxGeometry>
        </mxCell>
        <mxCell id="7nAhwSSTOHI013ocTRrG-130" value="User" style="text;html=1;align=center;verticalAlign=middle;whiteSpace=wrap;rounded=0;fontSize=18;fontStyle=1" parent="1" vertex="1">
          <mxGeometry x="40" y="40.97" width="280" height="40" as="geometry" />
        </mxCell>
        <mxCell id="_p5EBCPVnYr-h8DB5MFF-2" value="" style="edgeStyle=orthogonalEdgeStyle;rounded=0;orthogonalLoop=1;jettySize=auto;html=1;fontSize=12;" parent="1" source="7nAhwSSTOHI013ocTRrG-132" target="_p5EBCPVnYr-h8DB5MFF-1" edge="1">
          <mxGeometry relative="1" as="geometry" />
        </mxCell>
        <mxCell id="7nAhwSSTOHI013ocTRrG-132" value="" style="ellipse;whiteSpace=wrap;html=1;aspect=fixed;labelBackgroundColor=none;fillColor=#000000;fontSize=12;" parent="1" vertex="1">
          <mxGeometry x="165" y="104.97" width="30" height="30" as="geometry" />
        </mxCell>
        <mxCell id="20DuT2QTR_UrF6RUShH2-7" style="edgeStyle=orthogonalEdgeStyle;rounded=0;orthogonalLoop=1;jettySize=auto;html=1;fontSize=12;" parent="1" source="7nAhwSSTOHI013ocTRrG-135" target="20DuT2QTR_UrF6RUShH2-6" edge="1">
          <mxGeometry relative="1" as="geometry" />
        </mxCell>
        <mxCell id="20DuT2QTR_UrF6RUShH2-11" value="Belum" style="edgeLabel;html=1;align=center;verticalAlign=middle;resizable=0;points=[];fontSize=12;" parent="20DuT2QTR_UrF6RUShH2-7" vertex="1" connectable="0">
          <mxGeometry x="-0.2185" y="-3" relative="1" as="geometry">
            <mxPoint x="3" y="9" as="offset" />
          </mxGeometry>
        </mxCell>
        <mxCell id="20DuT2QTR_UrF6RUShH2-15" style="edgeStyle=orthogonalEdgeStyle;rounded=0;orthogonalLoop=1;jettySize=auto;html=1;entryX=0;entryY=0.5;entryDx=0;entryDy=0;fontSize=12;" parent="1" source="7nAhwSSTOHI013ocTRrG-135" target="_p5EBCPVnYr-h8DB5MFF-4" edge="1">
          <mxGeometry relative="1" as="geometry">
            <Array as="points">
              <mxPoint x="80" y="460" />
              <mxPoint x="80" y="1390" />
            </Array>
          </mxGeometry>
        </mxCell>
        <mxCell id="20DuT2QTR_UrF6RUShH2-16" value="Sudah" style="edgeLabel;html=1;align=center;verticalAlign=middle;resizable=0;points=[];fontSize=12;" parent="20DuT2QTR_UrF6RUShH2-15" vertex="1" connectable="0">
          <mxGeometry x="-0.7328" relative="1" as="geometry">
            <mxPoint y="5" as="offset" />
          </mxGeometry>
        </mxCell>
        <mxCell id="7nAhwSSTOHI013ocTRrG-135" value="Sudah Mempunyai Akun?" style="strokeWidth=2;html=1;shape=mxgraph.flowchart.decision;whiteSpace=wrap;spacingTop=12;fontSize=12;" parent="1" vertex="1">
          <mxGeometry x="120" y="400" width="120" height="120" as="geometry" />
        </mxCell>
        <mxCell id="7nAhwSSTOHI013ocTRrG-177" value="" style="ellipse;html=1;shape=endState;fillColor=#000000;strokeColor=#ff0000;fontSize=12;" parent="1" vertex="1">
          <mxGeometry x="165" y="1745" width="30" height="30" as="geometry" />
        </mxCell>
        <mxCell id="7nAhwSSTOHI013ocTRrG-131" value="System" style="text;html=1;align=center;verticalAlign=middle;whiteSpace=wrap;rounded=0;fontSize=18;fontStyle=1" parent="1" vertex="1">
          <mxGeometry x="320" y="40" width="480" height="40" as="geometry" />
        </mxCell>
        <mxCell id="20DuT2QTR_UrF6RUShH2-2" value="" style="edgeStyle=orthogonalEdgeStyle;rounded=0;orthogonalLoop=1;jettySize=auto;html=1;fontSize=12;" parent="1" source="_p5EBCPVnYr-h8DB5MFF-1" target="20DuT2QTR_UrF6RUShH2-1" edge="1">
          <mxGeometry relative="1" as="geometry" />
        </mxCell>
        <mxCell id="_p5EBCPVnYr-h8DB5MFF-1" value="Hastinulc Makeup Art" style="rounded=1;whiteSpace=wrap;html=1;strokeWidth=2;fontSize=12;" parent="1" vertex="1">
          <mxGeometry x="120" y="160" width="120" height="60" as="geometry" />
        </mxCell>
        <mxCell id="_p5EBCPVnYr-h8DB5MFF-15" style="edgeStyle=orthogonalEdgeStyle;rounded=0;orthogonalLoop=1;jettySize=auto;html=1;entryX=0;entryY=0.5;entryDx=0;entryDy=0;fontSize=12;" parent="1" source="_p5EBCPVnYr-h8DB5MFF-4" target="_p5EBCPVnYr-h8DB5MFF-14" edge="1">
          <mxGeometry relative="1" as="geometry">
            <Array as="points">
              <mxPoint x="180" y="1549" />
            </Array>
          </mxGeometry>
        </mxCell>
        <mxCell id="_p5EBCPVnYr-h8DB5MFF-4" value="Mengisi Formulir Username Atau Email Dan Password" style="rounded=1;whiteSpace=wrap;html=1;strokeWidth=2;fontSize=12;" parent="1" vertex="1">
          <mxGeometry x="120" y="1360" width="120" height="60" as="geometry" />
        </mxCell>
        <mxCell id="_p5EBCPVnYr-h8DB5MFF-31" value="" style="edgeStyle=orthogonalEdgeStyle;rounded=0;orthogonalLoop=1;jettySize=auto;html=1;fontSize=12;" parent="1" source="_p5EBCPVnYr-h8DB5MFF-14" target="_p5EBCPVnYr-h8DB5MFF-30" edge="1">
          <mxGeometry relative="1" as="geometry" />
        </mxCell>
        <mxCell id="_p5EBCPVnYr-h8DB5MFF-14" value="Memvalidasi" style="rounded=1;whiteSpace=wrap;html=1;strokeWidth=2;fontSize=12;" parent="1" vertex="1">
          <mxGeometry x="400" y="1519.03" width="120" height="60" as="geometry" />
        </mxCell>
        <mxCell id="20DuT2QTR_UrF6RUShH2-37" style="edgeStyle=orthogonalEdgeStyle;rounded=0;orthogonalLoop=1;jettySize=auto;html=1;fontSize=12;" parent="1" source="_p5EBCPVnYr-h8DB5MFF-18" target="20DuT2QTR_UrF6RUShH2-35" edge="1">
          <mxGeometry relative="1" as="geometry" />
        </mxCell>
        <mxCell id="_p5EBCPVnYr-h8DB5MFF-18" value="Mengisi Formulir Pendaftaran" style="rounded=1;whiteSpace=wrap;html=1;strokeWidth=2;fontSize=12;" parent="1" vertex="1">
          <mxGeometry x="120" y="720" width="120" height="60" as="geometry" />
        </mxCell>
        <mxCell id="_p5EBCPVnYr-h8DB5MFF-24" style="edgeStyle=orthogonalEdgeStyle;rounded=0;orthogonalLoop=1;jettySize=auto;html=1;entryX=1;entryY=0.5;entryDx=0;entryDy=0;strokeColor=#000000;fontSize=12;" parent="1" source="_p5EBCPVnYr-h8DB5MFF-22" target="_p5EBCPVnYr-h8DB5MFF-18" edge="1">
          <mxGeometry relative="1" as="geometry">
            <Array as="points">
              <mxPoint x="660" y="750" />
            </Array>
          </mxGeometry>
        </mxCell>
        <mxCell id="_p5EBCPVnYr-h8DB5MFF-25" value="Sudah" style="edgeLabel;html=1;align=center;verticalAlign=middle;resizable=0;points=[];fontSize=12;" parent="_p5EBCPVnYr-h8DB5MFF-24" vertex="1" connectable="0">
          <mxGeometry x="-0.3861" y="-1" relative="1" as="geometry">
            <mxPoint x="87" y="31" as="offset" />
          </mxGeometry>
        </mxCell>
        <mxCell id="20DuT2QTR_UrF6RUShH2-17" value="" style="edgeStyle=orthogonalEdgeStyle;rounded=0;orthogonalLoop=1;jettySize=auto;html=1;fontSize=12;" parent="1" source="_p5EBCPVnYr-h8DB5MFF-22" target="_p5EBCPVnYr-h8DB5MFF-26" edge="1">
          <mxGeometry relative="1" as="geometry" />
        </mxCell>
        <mxCell id="20DuT2QTR_UrF6RUShH2-18" value="Belum" style="edgeLabel;html=1;align=center;verticalAlign=middle;resizable=0;points=[];fontSize=12;" parent="20DuT2QTR_UrF6RUShH2-17" vertex="1" connectable="0">
          <mxGeometry x="-0.1689" y="-1" relative="1" as="geometry">
            <mxPoint x="1" as="offset" />
          </mxGeometry>
        </mxCell>
        <mxCell id="_p5EBCPVnYr-h8DB5MFF-22" value="&lt;font&gt;Apakah Username Atau Email Sudah Dipakai?&lt;/font&gt;" style="strokeWidth=2;html=1;shape=mxgraph.flowchart.decision;whiteSpace=wrap;spacingTop=12;fontSize=12;" parent="1" vertex="1">
          <mxGeometry x="600" y="810" width="120" height="120" as="geometry" />
        </mxCell>
        <mxCell id="20DuT2QTR_UrF6RUShH2-20" style="edgeStyle=orthogonalEdgeStyle;rounded=0;orthogonalLoop=1;jettySize=auto;html=1;entryX=0.5;entryY=0;entryDx=0;entryDy=0;fontSize=12;" parent="1" source="_p5EBCPVnYr-h8DB5MFF-26" target="20DuT2QTR_UrF6RUShH2-19" edge="1">
          <mxGeometry relative="1" as="geometry" />
        </mxCell>
        <mxCell id="_p5EBCPVnYr-h8DB5MFF-26" value="Menyimpan Data Di Database" style="rounded=1;whiteSpace=wrap;html=1;strokeWidth=2;fontSize=12;" parent="1" vertex="1">
          <mxGeometry x="600" y="1000" width="120" height="60" as="geometry" />
        </mxCell>
        <mxCell id="_p5EBCPVnYr-h8DB5MFF-32" style="edgeStyle=orthogonalEdgeStyle;rounded=0;orthogonalLoop=1;jettySize=auto;html=1;exitX=0;exitY=0.5;exitDx=0;exitDy=0;exitPerimeter=0;entryX=1;entryY=0.5;entryDx=0;entryDy=0;fontSize=12;" parent="1" source="_p5EBCPVnYr-h8DB5MFF-30" target="_p5EBCPVnYr-h8DB5MFF-4" edge="1">
          <mxGeometry relative="1" as="geometry">
            <Array as="points" />
          </mxGeometry>
        </mxCell>
        <mxCell id="_p5EBCPVnYr-h8DB5MFF-33" value="Tidak" style="edgeLabel;html=1;align=center;verticalAlign=middle;resizable=0;points=[];fontSize=12;" parent="_p5EBCPVnYr-h8DB5MFF-32" vertex="1" connectable="0">
          <mxGeometry x="-0.2443" relative="1" as="geometry">
            <mxPoint x="21" as="offset" />
          </mxGeometry>
        </mxCell>
        <mxCell id="_p5EBCPVnYr-h8DB5MFF-35" style="edgeStyle=orthogonalEdgeStyle;rounded=0;orthogonalLoop=1;jettySize=auto;html=1;entryX=0.5;entryY=0;entryDx=0;entryDy=0;fontSize=12;" parent="1" source="_p5EBCPVnYr-h8DB5MFF-30" target="_p5EBCPVnYr-h8DB5MFF-37" edge="1">
          <mxGeometry relative="1" as="geometry" />
        </mxCell>
        <mxCell id="_p5EBCPVnYr-h8DB5MFF-36" value="Ya" style="edgeLabel;html=1;align=center;verticalAlign=middle;resizable=0;points=[];fontSize=12;" parent="_p5EBCPVnYr-h8DB5MFF-35" vertex="1" connectable="0">
          <mxGeometry x="-0.6511" relative="1" as="geometry">
            <mxPoint x="-5" as="offset" />
          </mxGeometry>
        </mxCell>
        <mxCell id="_p5EBCPVnYr-h8DB5MFF-30" value="&lt;font&gt;Valid?&lt;/font&gt;" style="strokeWidth=2;html=1;shape=mxgraph.flowchart.decision;whiteSpace=wrap;spacingTop=6;spacing=2;fontSize=12;" parent="1" vertex="1">
          <mxGeometry x="400" y="1330" width="120" height="120" as="geometry" />
        </mxCell>
        <mxCell id="20DuT2QTR_UrF6RUShH2-39" style="edgeStyle=orthogonalEdgeStyle;rounded=0;orthogonalLoop=1;jettySize=auto;html=1;entryX=1;entryY=0.5;entryDx=0;entryDy=0;fontSize=12;" parent="1" source="_p5EBCPVnYr-h8DB5MFF-34" target="7nAhwSSTOHI013ocTRrG-177" edge="1">
          <mxGeometry relative="1" as="geometry">
            <Array as="points">
              <mxPoint x="660" y="1760" />
            </Array>
          </mxGeometry>
        </mxCell>
        <mxCell id="_p5EBCPVnYr-h8DB5MFF-34" value="&lt;div&gt;Dialihkan Ke Halaman &quot;Home&quot;&lt;/div&gt;" style="rounded=1;whiteSpace=wrap;html=1;strokeWidth=2;fontSize=12;" parent="1" vertex="1">
          <mxGeometry x="600" y="1640" width="120" height="60" as="geometry" />
        </mxCell>
        <mxCell id="_p5EBCPVnYr-h8DB5MFF-38" value="" style="edgeStyle=orthogonalEdgeStyle;rounded=0;orthogonalLoop=1;jettySize=auto;html=1;fontSize=12;" parent="1" source="_p5EBCPVnYr-h8DB5MFF-37" target="_p5EBCPVnYr-h8DB5MFF-34" edge="1">
          <mxGeometry relative="1" as="geometry" />
        </mxCell>
        <mxCell id="_p5EBCPVnYr-h8DB5MFF-37" value="Menyimpan Data Di Session" style="rounded=1;whiteSpace=wrap;html=1;strokeWidth=2;fontSize=12;" parent="1" vertex="1">
          <mxGeometry x="600" y="1519.03" width="120" height="60" as="geometry" />
        </mxCell>
        <mxCell id="20DuT2QTR_UrF6RUShH2-4" style="edgeStyle=orthogonalEdgeStyle;rounded=0;orthogonalLoop=1;jettySize=auto;html=1;entryX=0;entryY=0.5;entryDx=0;entryDy=0;fontSize=12;" parent="1" source="20DuT2QTR_UrF6RUShH2-1" target="20DuT2QTR_UrF6RUShH2-3" edge="1">
          <mxGeometry relative="1" as="geometry" />
        </mxCell>
        <mxCell id="20DuT2QTR_UrF6RUShH2-1" value="Klik Tombol &quot;Login&quot;" style="rounded=1;whiteSpace=wrap;html=1;strokeWidth=2;fontSize=12;" parent="1" vertex="1">
          <mxGeometry x="120" y="280" width="120" height="60" as="geometry" />
        </mxCell>
        <mxCell id="20DuT2QTR_UrF6RUShH2-3" value="Beralih Ke Halaman &quot;Login&quot;" style="rounded=1;whiteSpace=wrap;html=1;strokeWidth=2;fontSize=12;" parent="1" vertex="1">
          <mxGeometry x="400" y="280" width="120" height="60" as="geometry" />
        </mxCell>
        <mxCell id="20DuT2QTR_UrF6RUShH2-5" style="edgeStyle=orthogonalEdgeStyle;rounded=0;orthogonalLoop=1;jettySize=auto;html=1;entryX=1;entryY=0.5;entryDx=0;entryDy=0;entryPerimeter=0;fontSize=12;" parent="1" source="20DuT2QTR_UrF6RUShH2-3" target="7nAhwSSTOHI013ocTRrG-135" edge="1">
          <mxGeometry relative="1" as="geometry">
            <Array as="points">
              <mxPoint x="460" y="460" />
            </Array>
          </mxGeometry>
        </mxCell>
        <mxCell id="20DuT2QTR_UrF6RUShH2-9" style="edgeStyle=orthogonalEdgeStyle;rounded=0;orthogonalLoop=1;jettySize=auto;html=1;entryX=0;entryY=0.5;entryDx=0;entryDy=0;fontSize=12;" parent="1" source="20DuT2QTR_UrF6RUShH2-6" target="20DuT2QTR_UrF6RUShH2-8" edge="1">
          <mxGeometry relative="1" as="geometry" />
        </mxCell>
        <mxCell id="20DuT2QTR_UrF6RUShH2-6" value="Klik Tombol&lt;div&gt;&quot;Register&quot;&lt;/div&gt;" style="rounded=1;whiteSpace=wrap;html=1;strokeWidth=2;fontSize=12;" parent="1" vertex="1">
          <mxGeometry x="120" y="600" width="120" height="60" as="geometry" />
        </mxCell>
        <mxCell id="20DuT2QTR_UrF6RUShH2-10" style="edgeStyle=orthogonalEdgeStyle;rounded=0;orthogonalLoop=1;jettySize=auto;html=1;entryX=0.5;entryY=0;entryDx=0;entryDy=0;fontSize=12;" parent="1" source="20DuT2QTR_UrF6RUShH2-8" target="_p5EBCPVnYr-h8DB5MFF-18" edge="1">
          <mxGeometry relative="1" as="geometry">
            <Array as="points">
              <mxPoint x="460" y="690" />
              <mxPoint x="180" y="690" />
            </Array>
          </mxGeometry>
        </mxCell>
        <mxCell id="20DuT2QTR_UrF6RUShH2-8" value="Beralih Ke Halaman &quot;Register&quot;" style="rounded=1;whiteSpace=wrap;html=1;strokeWidth=2;fontSize=12;" parent="1" vertex="1">
          <mxGeometry x="400" y="600" width="120" height="60" as="geometry" />
        </mxCell>
        <mxCell id="20DuT2QTR_UrF6RUShH2-12" value="Mengkonfirmasi" style="rounded=1;whiteSpace=wrap;html=1;strokeWidth=2;fontSize=12;" parent="1" vertex="1">
          <mxGeometry x="400" y="840" width="120" height="60" as="geometry" />
        </mxCell>
        <mxCell id="20DuT2QTR_UrF6RUShH2-14" style="edgeStyle=orthogonalEdgeStyle;rounded=0;orthogonalLoop=1;jettySize=auto;html=1;entryX=0;entryY=0.5;entryDx=0;entryDy=0;entryPerimeter=0;fontSize=12;" parent="1" source="20DuT2QTR_UrF6RUShH2-12" target="_p5EBCPVnYr-h8DB5MFF-22" edge="1">
          <mxGeometry relative="1" as="geometry" />
        </mxCell>
        <mxCell id="20DuT2QTR_UrF6RUShH2-43" style="edgeStyle=orthogonalEdgeStyle;rounded=0;orthogonalLoop=1;jettySize=auto;html=1;fontSize=12;" parent="1" source="20DuT2QTR_UrF6RUShH2-19" edge="1">
          <mxGeometry relative="1" as="geometry">
            <mxPoint x="660" y="1280" as="targetPoint" />
          </mxGeometry>
        </mxCell>
        <mxCell id="20DuT2QTR_UrF6RUShH2-19" value="Mengirim Email Verifikasi Ke User" style="rounded=1;whiteSpace=wrap;html=1;strokeWidth=2;fontSize=12;" parent="1" vertex="1">
          <mxGeometry x="600" y="1120" width="120" height="60" as="geometry" />
        </mxCell>
        <mxCell id="20DuT2QTR_UrF6RUShH2-27" style="edgeStyle=orthogonalEdgeStyle;rounded=0;orthogonalLoop=1;jettySize=auto;html=1;entryX=0;entryY=0.5;entryDx=0;entryDy=0;fontSize=12;" parent="1" source="20DuT2QTR_UrF6RUShH2-21" target="20DuT2QTR_UrF6RUShH2-26" edge="1">
          <mxGeometry relative="1" as="geometry">
            <Array as="points">
              <mxPoint x="180" y="1030" />
            </Array>
          </mxGeometry>
        </mxCell>
        <mxCell id="20DuT2QTR_UrF6RUShH2-30" value="Tidak" style="edgeLabel;html=1;align=center;verticalAlign=middle;resizable=0;points=[];fontSize=12;" parent="20DuT2QTR_UrF6RUShH2-27" vertex="1" connectable="0">
          <mxGeometry x="-0.8102" y="1" relative="1" as="geometry">
            <mxPoint x="1" y="-3" as="offset" />
          </mxGeometry>
        </mxCell>
        <mxCell id="20DuT2QTR_UrF6RUShH2-21" value="&lt;font&gt;Mengkonfirmasi?&lt;/font&gt;" style="strokeWidth=2;html=1;shape=mxgraph.flowchart.decision;whiteSpace=wrap;spacingTop=4;fontSize=12;" parent="1" vertex="1">
          <mxGeometry x="120" y="1090" width="120" height="120" as="geometry" />
        </mxCell>
        <mxCell id="20DuT2QTR_UrF6RUShH2-22" style="edgeStyle=orthogonalEdgeStyle;rounded=0;orthogonalLoop=1;jettySize=auto;html=1;entryX=1;entryY=0.5;entryDx=0;entryDy=0;entryPerimeter=0;fontSize=12;" parent="1" source="20DuT2QTR_UrF6RUShH2-19" target="20DuT2QTR_UrF6RUShH2-21" edge="1">
          <mxGeometry relative="1" as="geometry" />
        </mxCell>
        <mxCell id="20DuT2QTR_UrF6RUShH2-25" style="edgeStyle=orthogonalEdgeStyle;rounded=0;orthogonalLoop=1;jettySize=auto;html=1;fontSize=12;" parent="1" source="20DuT2QTR_UrF6RUShH2-23" target="_p5EBCPVnYr-h8DB5MFF-4" edge="1">
          <mxGeometry relative="1" as="geometry" />
        </mxCell>
        <mxCell id="20DuT2QTR_UrF6RUShH2-23" value="Dialihkan Ke Halaman &quot;Login&quot;" style="rounded=1;whiteSpace=wrap;html=1;strokeWidth=2;fontSize=12;" parent="1" vertex="1">
          <mxGeometry x="600" y="1280" width="120" height="60" as="geometry" />
        </mxCell>
        <mxCell id="20DuT2QTR_UrF6RUShH2-38" style="edgeStyle=orthogonalEdgeStyle;rounded=0;orthogonalLoop=1;jettySize=auto;html=1;entryX=0;entryY=0.5;entryDx=0;entryDy=0;fontColor=#000000;strokeColor=#FF0000;fontSize=12;" parent="1" source="20DuT2QTR_UrF6RUShH2-26" target="7nAhwSSTOHI013ocTRrG-177" edge="1">
          <mxGeometry relative="1" as="geometry">
            <Array as="points">
              <mxPoint x="460" y="960" />
              <mxPoint x="60" y="960" />
              <mxPoint x="60" y="1760" />
            </Array>
          </mxGeometry>
        </mxCell>
        <mxCell id="20DuT2QTR_UrF6RUShH2-26" value="&lt;font&gt;Tidak Dapat Masuk/Login Karna Akun Berstatus Tidak Terverifikasi&lt;/font&gt;" style="rounded=1;whiteSpace=wrap;html=1;strokeWidth=2;fontSize=12;" parent="1" vertex="1">
          <mxGeometry x="400" y="1000" width="120" height="60" as="geometry" />
        </mxCell>
        <mxCell id="20DuT2QTR_UrF6RUShH2-36" style="edgeStyle=orthogonalEdgeStyle;rounded=0;orthogonalLoop=1;jettySize=auto;html=1;entryX=0;entryY=0.5;entryDx=0;entryDy=0;fontSize=12;" parent="1" source="20DuT2QTR_UrF6RUShH2-35" target="20DuT2QTR_UrF6RUShH2-12" edge="1">
          <mxGeometry relative="1" as="geometry" />
        </mxCell>
        <mxCell id="20DuT2QTR_UrF6RUShH2-35" value="Klik Tombol&lt;div&gt;&quot;Register&quot;&lt;/div&gt;" style="rounded=1;whiteSpace=wrap;html=1;strokeWidth=2;fontSize=12;" parent="1" vertex="1">
          <mxGeometry x="120" y="840" width="120" height="60" as="geometry" />
        </mxCell>
        <mxCell id="20DuT2QTR_UrF6RUShH2-41" value="" style="edgeStyle=orthogonalEdgeStyle;rounded=0;orthogonalLoop=1;jettySize=auto;html=1;exitX=0.5;exitY=1;exitDx=0;exitDy=0;exitPerimeter=0;entryX=0.5;entryY=0;entryDx=0;entryDy=0;fontSize=12;" parent="1" source="20DuT2QTR_UrF6RUShH2-21" target="20DuT2QTR_UrF6RUShH2-23" edge="1">
          <mxGeometry relative="1" as="geometry">
            <mxPoint x="660" y="1270" as="targetPoint" />
            <mxPoint x="180" y="1210" as="sourcePoint" />
            <Array as="points">
              <mxPoint x="180" y="1240" />
              <mxPoint x="660" y="1240" />
            </Array>
          </mxGeometry>
        </mxCell>
        <mxCell id="20DuT2QTR_UrF6RUShH2-42" value="Ya" style="edgeLabel;html=1;align=center;verticalAlign=middle;resizable=0;points=[];fontSize=12;" parent="20DuT2QTR_UrF6RUShH2-41" vertex="1" connectable="0">
          <mxGeometry x="-0.7294" y="3" relative="1" as="geometry">
            <mxPoint x="13" y="3" as="offset" />
          </mxGeometry>
        </mxCell>
        <mxCell id="20DuT2QTR_UrF6RUShH2-40" value="" style="triangle;whiteSpace=wrap;html=1;direction=south;fillColor=#000000;fontSize=12;" parent="1" vertex="1">
          <mxGeometry x="653.3300000000003" y="1237" width="13.33" height="10" as="geometry" />
        </mxCell>
      </root>
    </mxGraphModel>
  </diagram>
</mxfile>
